<svg width="131" height="34" viewBox="0 0 131 34" fill="none" xmlns="http://www.w3.org/2000/svg">
<path d="M11.4803 8.69126L11.6928 25.3858L22.788 25.3141L22.5755 8.08298L11.4803 8.69126Z" fill="white"/>
<path d="M11.3369 10.0247L14.0303 8.46814L20.2566 8.61955L11.3023 14.7555L11.3369 10.0247Z" fill="#DA9D00"/>
<path d="M11.4803 17.858L22.7162 10.1894L22.6445 15.3266L11.4431 23.1386L11.4803 17.858Z" fill="#1D86FA"/>
<path d="M13.2627 25.3141L22.6817 18.6442L22.5383 23.5663L19.0055 26.1003L13.2627 25.3141Z" fill="#DA9D00"/>
<path d="M10.7658 8.61954L10.9809 25.6355L12.0142 25.2423L11.8017 8.22641L10.7658 8.61954Z" fill="#A1D2D6"/>
<path d="M22.1106 8.33266L22.2169 25.3141L23.2448 25.1972L23.1094 8.29813L22.1106 8.33266Z" fill="#A1D2D6"/>
<path d="M10.6383 8.78954C10.8083 8.97813 22.8491 8.83204 23.0589 8.72579C23.2688 8.61954 24.3366 7.735 24.2542 6.32188C24.1719 4.92735 23.2077 4.48641 23.2077 4.48641C23.2077 4.48641 23.0217 3.08922 21.4147 2.01875C20.2752 1.25907 18.7983 1.0386 16.9442 1.05454C14.8989 1.07313 12.9784 1.19797 11.7566 2.41985C10.5825 3.59391 10.5347 4.73875 10.5347 4.73875C10.5347 4.73875 9.4961 5.0575 9.4961 6.61938C9.49344 8.16001 10.6383 8.78954 10.6383 8.78954Z" fill="#C8C8C8"/>
<path d="M10.8269 25.0909C10.6516 25.237 10.6171 26.1455 10.6171 26.1455C10.6171 26.1455 9.63159 26.6767 9.77237 27.8322C9.89987 28.8655 10.7632 29.2666 10.7632 29.2666C10.7632 29.2666 11.1669 31.0144 12.5136 31.9653C13.948 32.9773 15.3611 33.0198 17.3852 33.0198C19.5792 33.0198 21.0747 32.8498 22.2567 31.7342C23.6114 30.4512 23.7124 29.1205 23.7124 29.1205C23.7124 29.1205 24.4933 28.6556 24.4721 27.6011C24.4508 26.5466 23.5875 26.1455 23.5875 26.1455C23.5875 26.1455 23.4069 25.3034 23.2502 25.0909C23.1705 24.982 20.0202 25.0112 16.923 25.0272C13.9347 25.0405 10.9624 24.9767 10.8269 25.0909Z" fill="#C8C8C8"/>
<path d="M16.3545 31.9866C16.3333 32.4089 18.5672 32.3983 20.2141 32.0291C22.092 31.6067 22.703 30.005 22.5967 29.8775C22.4905 29.75 20.5939 29.7925 20.4876 29.8988C20.3814 30.005 19.898 30.9958 19.0745 31.3331C18.2511 31.6705 16.3705 31.6652 16.3545 31.9866Z" fill="#858585"/>
<path d="M9.83875 28.1111L24.4348 28.0447C24.4348 28.0447 24.387 28.3528 24.1878 28.653C23.9939 28.9425 23.715 29.1178 23.715 29.1178L10.7737 29.2692C10.7737 29.2692 10.3859 29.0594 10.2186 28.8522C9.84937 28.3953 9.83875 28.1111 9.83875 28.1111Z" fill="#858585"/>
<path d="M9.77502 27.3859L24.4216 27.1974C24.4216 27.1974 24.3738 26.8122 24.1135 26.5227C23.8957 26.2783 23.5875 26.1428 23.5875 26.1428L10.4285 26.2703C10.4285 26.2703 10.1628 26.4669 10.0061 26.6927C9.81752 26.9663 9.77502 27.3859 9.77502 27.3859Z" fill="#E1E0E0"/>
<path d="M9.54657 6.0722C9.54657 6.0722 12.4738 5.49845 16.7556 5.4347C21.0375 5.37095 24.1214 5.6233 24.1214 5.6233C24.1214 5.6233 23.97 5.11861 23.7363 4.86627C23.5025 4.61392 23.2103 4.48642 23.2103 4.48642C23.2103 4.48642 19.1967 4.34033 16.7689 4.31908C13.8364 4.29517 10.5347 4.73877 10.5347 4.73877C10.5347 4.73877 10.1814 4.8397 9.94235 5.15048C9.60235 5.58877 9.54657 6.0722 9.54657 6.0722Z" fill="#E1E0E0"/>
<path d="M9.49878 6.89563C9.49878 6.89563 11.7778 6.44938 16.8592 6.38563C21.9407 6.32188 24.2516 6.6911 24.2516 6.6911C24.2516 6.6911 24.2728 6.99923 24.1719 7.29407C24.0603 7.62344 23.885 7.84126 23.885 7.84126C23.885 7.84126 19.5155 7.54907 16.8592 7.57032C14.203 7.59157 9.868 8.01126 9.868 8.01126C9.868 8.01126 9.68472 7.69516 9.62097 7.50657C9.55987 7.31001 9.49878 6.89563 9.49878 6.89563Z" fill="#858585"/>
<path d="M16.0863 5.1664C16.0863 5.39219 14.5908 5.525 13.0024 5.62062C12.1125 5.67375 10.5427 6.11203 10.5427 5.525C10.5427 4.93797 11.1111 4.8264 13.0395 4.78656C14.968 4.74672 16.0863 4.86359 16.0863 5.1664Z" fill="white"/>
<path d="M16.2005 1.66812C16.2509 1.81156 15.4434 2.08515 14.8192 2.74656C14.3783 3.21406 14.2322 3.655 13.9294 3.76922C13.6266 3.88344 12.0009 4.03484 11.9797 3.69484C11.9531 3.22203 12.2931 2.47297 13.0953 2.02937C14.365 1.32547 16.1048 1.4025 16.2005 1.66812Z" fill="white"/>
<path d="M35.956 11.896H39.964L46.432 21.64H46.168V11.896H50.008V28H46.3L39.16 17.296H39.796V28H35.956V11.896ZM58.8029 28.384C57.8109 28.384 56.8789 28.128 56.0069 27.616C55.1349 27.104 54.4269 26.372 53.8829 25.42C53.3469 24.468 53.0789 23.34 53.0789 22.036C53.0789 20.732 53.3469 19.616 53.8829 18.688C54.4189 17.752 55.1229 17.036 55.9949 16.54C56.8669 16.044 57.8029 15.796 58.8029 15.796C59.7949 15.796 60.6589 15.996 61.3949 16.396C62.1309 16.788 62.7229 17.32 63.1709 17.992C63.6269 18.664 63.9229 19.424 64.0589 20.272C64.2029 21.112 64.1749 21.98 63.9749 22.876H56.1149V20.932H61.1669L60.6149 21.292C60.6389 21.012 60.6269 20.728 60.5789 20.44C60.5389 20.152 60.4549 19.888 60.3269 19.648C60.1989 19.4 60.0149 19.204 59.7749 19.06C59.5429 18.908 59.2429 18.832 58.8749 18.832C58.4669 18.832 58.1109 18.932 57.8069 19.132C57.5109 19.324 57.2789 19.608 57.1109 19.984C56.9509 20.352 56.8709 20.804 56.8709 21.34V22.852C56.8709 23.356 56.9429 23.792 57.0869 24.16C57.2309 24.528 57.4429 24.816 57.7229 25.024C58.0109 25.224 58.3709 25.324 58.8029 25.324C59.1549 25.324 59.4629 25.252 59.7269 25.108C59.9909 24.964 60.1749 24.736 60.2789 24.424H64.0949C63.9749 25.16 63.6789 25.828 63.2069 26.428C62.7429 27.028 62.1349 27.504 61.3829 27.856C60.6389 28.208 59.7789 28.384 58.8029 28.384ZM65.3273 28L70.0673 22.12L65.3273 16.108H70.0673L72.4673 19.228L74.6993 16.108H79.3913L74.7353 22.12L79.4153 28H74.7233L72.2273 24.916L70.0673 28H65.3273ZM85.9351 28.384C85.1831 28.384 84.4791 28.248 83.8231 27.976C83.1751 27.704 82.6511 27.28 82.2511 26.704C81.8591 26.12 81.6631 25.372 81.6631 24.46V13.192H85.5271V24.316C85.5271 25.036 85.8831 25.396 86.5951 25.396C86.8191 25.396 87.0551 25.372 87.3031 25.324C87.5591 25.268 87.8551 25.18 88.1911 25.06L88.7551 27.736C88.2671 27.912 87.7991 28.064 87.3511 28.192C86.9111 28.32 86.4391 28.384 85.9351 28.384ZM80.2591 18.664V16.18H88.2151V18.664H80.2591Z" fill="white"/>
<path d="M97.6246 28.384C96.2166 28.384 94.9766 28.068 93.9046 27.436C92.8406 26.804 92.0086 25.864 91.4086 24.616C90.8086 23.368 90.5086 21.82 90.5086 19.972C90.5086 18.116 90.8046 16.564 91.3966 15.316C91.9966 14.068 92.8326 13.128 93.9046 12.496C94.9766 11.856 96.2166 11.536 97.6246 11.536C99.6566 11.536 101.205 12.016 102.269 12.976C103.333 13.936 103.965 15.18 104.165 16.708L100.085 17.416C99.9006 16.728 99.6086 16.16 99.2086 15.712C98.8166 15.256 98.2886 15.028 97.6246 15.028C97.0326 15.028 96.5086 15.208 96.0526 15.568C95.6046 15.92 95.2566 16.46 95.0086 17.188C94.7606 17.916 94.6366 18.844 94.6366 19.972C94.6366 21.076 94.7646 21.992 95.0206 22.72C95.2766 23.44 95.6286 23.976 96.0766 24.328C96.5326 24.68 97.0486 24.856 97.6246 24.856C98.4486 24.856 99.0646 24.64 99.4726 24.208C99.8806 23.768 100.085 23.236 100.085 22.612H104.141C104.141 23.852 103.889 24.904 103.385 25.768C102.889 26.624 102.157 27.276 101.189 27.724C100.221 28.164 99.0326 28.384 97.6246 28.384ZM114.935 16.108H118.775V28H114.935V16.108ZM107.099 16.108H110.939V23.26C110.939 23.804 111.075 24.208 111.347 24.472C111.627 24.728 111.983 24.856 112.415 24.856C112.807 24.856 113.195 24.76 113.579 24.568C113.971 24.376 114.295 24.048 114.551 23.584C114.807 23.12 114.935 22.476 114.935 21.652H115.775C115.775 23.22 115.595 24.488 115.235 25.456C114.875 26.416 114.383 27.116 113.759 27.556C113.143 27.996 112.443 28.216 111.659 28.216C110.867 28.216 110.123 28.08 109.427 27.808C108.731 27.536 108.167 27.072 107.735 26.416C107.311 25.76 107.099 24.856 107.099 23.704V16.108ZM127.185 28.384C126.433 28.384 125.729 28.248 125.073 27.976C124.425 27.704 123.901 27.28 123.501 26.704C123.109 26.12 122.913 25.372 122.913 24.46V13.192H126.777V24.316C126.777 25.036 127.133 25.396 127.845 25.396C128.069 25.396 128.305 25.372 128.553 25.324C128.809 25.268 129.105 25.18 129.441 25.06L130.005 27.736C129.517 27.912 129.049 28.064 128.601 28.192C128.161 28.32 127.689 28.384 127.185 28.384ZM121.509 18.664V16.18H129.465V18.664H121.509Z" fill="#A87900"/>
</svg>
