<svg width="32" height="32" viewBox="0 0 32 32" fill="none" xmlns="http://www.w3.org/2000/svg">
<g clip-path="url(#clip0_5085_88)">
<rect width="32" height="32" rx="6.05469" fill="#1D2129"/>
<path d="M2.74247 8.65402H6.31293L12.0748 17.3343H11.8397V8.65402H15.2605V23H11.9573L5.5967 13.4645H6.16327V23H2.74247V8.65402Z" fill="white"/>
<path d="M23.4801 23.3421C22.2258 23.3421 21.1211 23.0606 20.1662 22.4976C19.2183 21.9346 18.4771 21.0972 17.9426 19.9854C17.4081 18.8737 17.1409 17.4946 17.1409 15.8484C17.1409 14.195 17.4046 12.8124 17.932 11.7007C18.4665 10.5889 19.2112 9.75153 20.1662 9.18852C21.1211 8.61839 22.2258 8.33332 23.4801 8.33332C25.2902 8.33332 26.6693 8.76092 27.6171 9.61612C28.5649 10.4713 29.128 11.5795 29.3061 12.9407L25.6715 13.5714C25.5076 12.9585 25.2475 12.4525 24.8911 12.0534C24.5419 11.6472 24.0716 11.4441 23.4801 11.4441C22.9527 11.4441 22.4859 11.6045 22.0797 11.9252C21.6806 12.2387 21.3706 12.7198 21.1496 13.3683C20.9287 14.0168 20.8183 14.8435 20.8183 15.8484C20.8183 16.8319 20.9323 17.6479 21.1603 18.2964C21.3884 18.9378 21.702 19.4153 22.1011 19.7289C22.5073 20.0424 22.9669 20.1992 23.4801 20.1992C24.2141 20.1992 24.7629 20.0068 25.1263 19.622C25.4898 19.23 25.6715 18.7561 25.6715 18.2002H29.2847C29.2847 19.3048 29.0602 20.242 28.6113 21.0117C28.1694 21.7742 27.5173 22.355 26.655 22.7541C25.7927 23.1461 24.7344 23.3421 23.4801 23.3421Z" fill="#A87900"/>
</g>
<defs>
<clipPath id="clip0_5085_88">
<rect width="32" height="32" fill="white"/>
</clipPath>
</defs>
</svg>
